# xmcd
#
# Track frame offsets: 
#        150
#        23148
#        37439
#        52904
#        66962
#        88326
#        105439
#        134779
#        149675
#        169285
#        192025
#        210563
#        232409
#        253637
#        268607
#        291237
#        311815
#
# Disc length: 4367 seconds
#
# Revision: 2
# Processed by: cddbd v1.5.2PL0 Copyright (c) Steve Scherf et al.
# Submitted via: ExactAudioCopyFreeDBPlugin 1.0
#
DISCID=16110d11
DTITLE=Various Artist - image essentielle
DYEAR=2005
DGENRE=New Age
TTITLE0=葉加瀬太郎 - Etupirka
TTITLE1=鳥山雄司 - The Song of Life 
TTITLE2=小松亮太 with 鳥山雄司 - Starneon
TTITLE3=木村大 - SUN BURST
TTITLE4=馬 友友 - モヒーニー(魅惑)
TTITLE5=羽毛田丈史 - 地球に乾杯 
TTITLE6=宮本文昭 featuring 林正子 - オペラ座の怪人
TTITLE7=Deep Forest - Freedom Cry 
TTITLE8=林亨柱 - Dance With Me(Rhapsody in Blue) 
TTITLE9=加古隆 - ﾊﾟﾘは燃えているか
TTITLE10=Gontiti - 放課後の音楽室 
TTITLE11=子龍 featuring 三村奈々恵 - Universe
TTITLE12=松谷卓 - TAKUMI 
TTITLE13=小松亮太 - 目覚め 
TTITLE14=葉加瀬太郎 with 小松亮太 - 情熱大陸 
TTITLE15=ariya - 最初から今まで 
TTITLE16=All Stars - Image_d'amour‎
EXTD=YEAR: 2005
EXTT0=
EXTT1=
EXTT2=
EXTT3=
EXTT4=
EXTT5=
EXTT6=
EXTT7=
EXTT8=
EXTT9=
EXTT10=
EXTT11=
EXTT12=
EXTT13=
EXTT14=
EXTT15=
EXTT16=
PLAYORDER=
